<svg xmlns="http://www.w3.org/2000/svg" viewBox="0 0 32 32" role="img" aria-hidden="true">
  <defs>
    <linearGradient id="latch-mark-dark-gradient" x1="0%" y1="100%" x2="100%" y2="0%">
      <stop offset="0%" stop-color="#5b8def" />
      <stop offset="100%" stop-color="#7aa3f5" />
    </linearGradient>
  </defs>
  <g transform="translate(3.5, 7.5)">
    <path fill="url(#latch-mark-dark-gradient)" d="M35 15 C24 15 15 24 15 35 C15 46 24 55 35 55 L50 55 L50 43 L35 43 C31 43 27 39 27 35 C27 31 31 27 35 27 L50 27 L50 15 Z" />
    <path fill="url(#latch-mark-dark-gradient)" opacity="0.85" d="M42 25 L42 37 L57 37 C61 37 65 41 65 45 C65 49 61 53 57 53 L42 53 L42 65 L57 65 C68 65 77 56 77 45 C77 34 68 25 57 25 Z" />
  </g>
</svg>